# xmcd
#
# Track frame offsets:
#	150
#	17144
#	31078
#	43956
#	62535
#	86317
#	105551
#	122923
#	140158
#	160364
#	178809
#	198923
#	213957
#	234246
#	253538
#	270480
#	289621
#	306815
#	327585
#
# Disc length: 4620 seconds
#
# Revision: 0
# Processed by: cddbd v1.5.2PL0 Copyright (c) Steve Scherf et al.
# Submitted via: EZCDAudioConverter 3.1.0.1
#
DISCID=0d120a13
DTITLE=Hott Urban Volume 14 CAN
DYEAR=2016
DGENRE=blues
TTITLE0=Wale - My PYT
TTITLE1=DJ Khaled ft. Drake - For Free
TTITLE2=Mike Will Made-It ft. Rihanna - Nothing Is Promised
TTITLE3=Drake - Controlla
TTITLE4=ScHoolBoy Q ft. Kanye West - That Part
TTITLE5=DJ Drama ft. Chris Brown, Skeme and Lyquin - Wishing
TTITLE6=Usher ft. Young Thug - No Limit
TTITLE7=Young Greatness - Ball
TTITLE8=T.I. ft. Marsha Ambrosius - DOPE
TTITLE9=Migos - Say Sum
TTITLE10=Kanye West ft. Kid Cudi - Father Stretch My Hands (Part 1 and 2)
TTITLE11=YG ft. Drake - Why You Always Hatin'
TTITLE12=50 Cent ft. Chris Brown - No Romeo, No Juliet
TTITLE13=Lloyd - Tru
TTITLE14=DJ Dram ft. Lil Yachty - Broccoli
TTITLE15=K. Michelle - Ain't You
TTITLE16=Jaheim - Struggle Love
TTITLE17=Eric Benet - Sunshine
TTITLE18=Young Thug and Travis Scott ft. Quavo - Pick Up the Phone
EXTD=
EXTT0=
EXTT1=
EXTT2=
EXTT3=
EXTT4=
EXTT5=
EXTT6=
EXTT7=
EXTT8=
EXTT9=
EXTT10=
EXTT11=
EXTT12=
EXTT13=
EXTT14=
EXTT15=
EXTT16=
EXTT17=
EXTT18=
PLAYORDER=
